<?xml version="1.0" encoding="UTF-8"?>
<svg width="500px" height="639px" viewBox="0 0 500 639" version="1.1" xmlns="http://www.w3.org/2000/svg" xmlns:xlink="http://www.w3.org/1999/xlink">
    <!-- Generator: Sketch 59 (86127) - https://sketch.com -->
    <title>bunny_latam_map_2022</title>
    <desc>Created with Sketch.</desc>
    <defs>
        <linearGradient x1="49.8937387%" y1="84.7151963%" x2="49.8937387%" y2="-177.370202%" id="linearGradient-1">
            <stop stop-color="#456D99" offset="0%"></stop>
            <stop stop-color="#FFFFFF" offset="100%"></stop>
        </linearGradient>
        <linearGradient x1="49.8938373%" y1="84.7154422%" x2="49.8938373%" y2="-177.370993%" id="linearGradient-2">
            <stop stop-color="#456D99" offset="0%"></stop>
            <stop stop-color="#FFFFFF" offset="100%"></stop>
        </linearGradient>
    </defs>
    <g id="Page-1" stroke="none" stroke-width="1" fill="none" fill-rule="evenodd">
        <g id="bunny_latam_map_2022" fill-rule="nonzero">
            <path d="M345.757109,637.890995 C342.915877,636.267773 341.69846,627.138626 337.843009,624.093602 C333.987559,621.048578 315.521919,621.86019 312.072275,615.56872 C308.62263,609.283175 298.273697,586.959716 292.592417,571.537915 C286.910545,556.115521 270.879739,525.880924 266.212678,520.199052 C261.545616,514.51718 263.371445,478.397512 262.154028,464.802133 C260.936611,451.003555 259.313389,364.154028 259.313389,355.022512 C259.313389,345.891588 219.33827,328.643365 217.511848,327.628555 C215.888626,326.411137 188.291469,275.681872 180.986374,265.332938 C173.478673,254.984005 170.231635,241.997038 169.014218,237.329976 C167.796801,232.662915 176.928318,231.039692 175.305095,225.35782 C173.68128,219.675948 173.68128,209.936019 176.928318,202.427725 C180.377962,194.920024 200.264218,179.091825 202.699052,173.207346 C204.93128,167.525474 203.307464,146.421801 197.01718,143.581161 C190.726896,140.740521 174.69609,148.248223 164.956161,141.957938 C155.21564,135.667062 141.620261,112.737559 138.170616,108.273104 C134.720972,103.606043 117.675948,97.5183649 113.617299,95.6919431 C109.558649,93.8661137 95.9632701,79.6617299 95.9632701,79.6617299 C95.9632701,79.6617299 70.7944313,83.8969194 55.6872038,77.6066351 C45.3199052,71.6824645 30.5094787,61.9075829 19.549763,54.5022512 C18.3647512,52.7237559 15.4027844,40.580391 18.0690166,27.8435427 C21.2608412,27.2521919 4.14691943,10.366173 0.296208531,2.07199645 C14.9988744,-4.06816351 69.8187204,7.24822275 77.9028436,10.366173 C77.9028436,16.5869076 72.346564,40.9417654 72.2748815,40.5804502 C74.9407583,43.8387441 91.5201422,57.9491114 94.3400474,57.9491114 C100.224526,57.9491114 113.211493,39.0776659 117.270142,39.0776659 C121.328199,39.0776659 143.649289,36.2367891 143.649289,39.0776659 C143.649289,41.9184834 125.995261,74.9940758 136.141588,76.2120853 C146.490521,77.4295024 164.14455,77.4295024 164.14455,82.5023697 C164.14455,87.575237 159.476896,122.477488 159.476896,122.477488 C159.476896,122.477488 182.812796,132.826422 188.088863,132.217417 C193.16173,131.609005 194.379147,129.376777 206.351303,123.694905 C218.32346,118.013033 248.558649,101.98282 251.399289,102.591232 C254.240521,103.200237 278.793839,119.231043 278.793839,119.231043 L289.548578,115.172393 C289.548578,115.172393 311.260664,115.172393 313.492891,115.172393 C315.725118,115.172393 318.565758,134.043839 318.565758,134.043839 C318.565758,134.043839 331.146327,143.783768 334.190166,144.798578 C337.234005,146.015995 348.800355,147.030806 350.424171,147.639218 C352.047393,148.248223 372.745261,155.553318 376.803318,159.002962 C380.861967,162.452607 387.558649,173.816351 389.993483,181.933057 C392.225711,189.846564 395.675355,196.745853 416.981635,204.862559 C438.288507,212.776659 441.332346,211.761848 452.898697,216.226303 C464.465047,220.690758 498.555095,245.852488 499.773104,249.302133 C500.990521,252.751777 476.843009,290.494668 468.92891,294.959123 C461.015403,299.423578 468.92891,376.126185 468.92891,376.126185 C468.92891,376.126185 422.054502,390.939573 414.140995,394.389218 C406.226896,397.838863 414.140995,412.651659 414.140995,417.31872 C414.140995,421.986374 381.065166,469.875 376.397512,487.123223 C371.73045,504.168246 359.352488,507.617891 354.685427,508.835308 C350.018365,510.053318 330.740521,552.260071 335.00237,562.609005 C339.263626,572.957938 338.654621,587.771327 335.204976,599.135071 C331.755332,610.49763 368.88981,638.098341 368.88981,638.098341 C368.88981,638.098341 348.597749,639.721564 345.757109,637.890995 Z" id="Path" fill="url(#linearGradient-1)"></path>
            <path d="M182.204384,33.3943128 C188.495261,35.6264218 212.439573,50.4395142 224.41173,53.8891588 C236.383886,57.3388033 239.833531,49.8308057 236.992891,49.2220379 C234.151659,48.6132701 201.482227,26.9008294 188.901066,22.4366114 C176.319905,17.7694905 158.665877,28.1184242 158.665877,28.1184242 C158.665877,28.1184242 175.9141,31.1622038 182.204384,33.3943128 Z M259.719787,62.0059242 C266.010071,63.2233412 277.779621,59.7736967 276.562204,56.3241706 C275.344787,52.8745853 262.560427,49.4249408 260.937204,49.2220379 C259.313981,49.0190758 248.356043,52.6716232 248.356043,52.6716232 C248.356043,52.6716232 253.429502,60.9911137 259.719787,62.0059242 Z" id="Shape" fill="url(#linearGradient-2)"></path>
        </g>
    </g>
</svg>